#!OML:ASF I:\golf\golf\golf 2\Subject 1\2002-09-07\Subject1.ASF
:FULLY-SPECIFIED
:DEGREES
184
root -7.81995 17.2953 2.60848 -4.51552 56.4033 -19.2497
lowerback 5.01028 -10.1521 -13.1141
upperback 0.549849 -14.1375 -0.711915
thorax 0.747973 -7.0811 6.56597
lowerneck -5.65131 20.0521 2.00085
upperneck 17.4882 30.0653 -12.0442
head 8.60429 13.4349 -1.05157
rclavicle 9.48203e-014 4.13472e-014
rhumerus 19.7935 -14.4014 -69.2761
rradius 108.769
rwrist -7.40887
rhand -60.3417 38.2573
rfingers 7.12502
rthumb -32.477 11.1482
lclavicle 9.48203e-014 4.13472e-014
lhumerus 102.298 -45.7107 43.1546
lradius 36.9716
lwrist -0.775533
lhand -23.2437 0.10964
lfingers 7.12502
lthumb -176.792 -149.935
rfemur -36.7951 11.677 27.9294
rtibia 42.7363
rfoot -13.5968 14.233
rtoes 17.3705
lfemur -3.24591 2.95322 6.20545
ltibia 19.1657
lfoot -17.2933 28.2261
ltoes -8.64007
185
root -7.816 17.297 2.62026 -4.19885 56.1229 -18.9446
lowerback 5.08296 -10.2175 -13.2294
upperback 0.451348 -14.2491 -0.70426
thorax 0.65511 -7.12637 6.64921
lowerneck -5.73404 20.1394 1.75066
upperneck 17.2534 30.1318 -11.9381
head 8.48737 13.4763 -0.995736
rclavicle -1.35372e-013 -2.54444e-014
rhumerus 20.651 -14.9321 -68.2786
rradius 109.059
rwrist -5.80661
rhand -60.8021 38.7453
rfingers 7.12502
rthumb -32.9151 11.7272
lclavicle -1.35372e-013 -2.54444e-014
lhumerus 102.819 -45.5228 43.7399
lradius 37.3849
lwrist -0.865598
lhand -23.7943 -0.298569
lfingers 7.12502
lthumb -177.324 -150.336
rfemur -36.8161 11.9361 27.8149
rtibia 42.7486
rfoot -13.6586 14.3274
rtoes 17.1743
lfemur -3.0601 3.17428 6.0573
ltibia 18.9964
lfoot -17.1812 28.3968
ltoes -8.82343
186
root -7.81278 17.2908 2.62769 -3.89498 55.8222 -18.7073
lowerback 5.17506 -10.3015 -13.2508
upperback 0.259809 -14.3918 -0.739086
thorax 0.425271 -7.1728 6.65974
lowerneck -5.41424 20.2255 1.76173
upperneck 16.8219 30.1607 -12.0076
head 8.30114 13.5372 -1.06944
rclavicle 1.39149e-015 2.54444e-014
rhumerus 21.3158 -15.5038 -67.418
rradius 109.508
rwrist -5.15104
rhand -60.4933 39.5539
rfingers 7.12502
rthumb -32.6213 12.4745
lclavicle 1.39149e-015 2.54444e-014
lhumerus 103.243 -45.4426 44.2762
lradius 37.725
lwrist -0.901417
lhand -24.2451 -0.539109
lfingers 7.12502
lthumb -177.759 -150.571
rfemur -36.922 12.2292 27.709
rtibia 42.7801
rfoot -13.7024 14.3971
rtoes 16.6915
lfemur -2.88718 3.52374 5.96847
ltibia 18.8792
lfoot -17.679 28.1264
ltoes -7.08269
187
root -7.81001 17.2866 2.63177 -3.63432 55.5351 -18.596
lowerback 5.18407 -10.3627 -13.1556
upperback 0.0468148 -14.4871 -0.852974
thorax 0.159473 -7.19045 6.52489
lowerneck -4.79579 20.221 2.28929
upperneck 16.3376 30.0646 -12.3415
head 8.15832 13.5626 -1.30838
rclavicle 1.86858e-014 -1.27222e-014
rhumerus 21.7639 -16.1926 -66.5599
rradius 110.027
rwrist -4.55658
rhand -59.9813 39.4936
rfingers 7.12502
rthumb -32.1341 12.3146
lclavicle 1.86858e-014 -1.27222e-014
lhumerus 103.76 -45.5198 44.6321
lradius 38.1187
lwrist -0.829284
lhand -24.5184 -1.0394
lfingers 7.12502
lthumb -178.023 -151.069
rfemur -37.1074 12.4486 27.6737
rtibia 42.8238
rfoot -13.8303 14.4362
rtoes 15.7881
lfemur -2.78718 3.69335 5.92016
ltibia 18.7557
lfoot -18.2019 28.0498
ltoes -5.68236
188
root -7.80772 17.2867 2.63432 -3.42523 55.293 -18.5334
lowerback 5.15528 -10.4833 -13.0129
upperback -0.0302868 -14.6419 -0.902239
thorax 0.0768155 -7.25793 6.40161
lowerneck -4.89302 20.315 2.44514
upperneck 16.2282 30.181 -12.4291
head 8.18447 13.6171 -1.32179
rclavicle -2.30193e-013 -3.18055e-014
rhumerus 22.5267 -16.718 -65.7972
rradius 110.565
rwrist -3.61157
rhand -59.9416 38.6841
rfingers 7.12502
rthumb -32.0963 11.4976
lclavicle -2.30193e-013 -3.18055e-014
lhumerus 104.295 -45.2352 44.9257
lradius 38.582
lwrist -0.720826
lhand -24.525 -1.77666
lfingers 7.12502
lthumb -178.03 -151.806
rfemur -37.2743 12.6053 27.6584
rtibia 42.8598
rfoot -13.8586 14.5768
rtoes 15.6367
lfemur -2.72043 3.74527 5.87585
ltibia 18.6138
lfoot -18.4114 28.2285
ltoes -5.25963
189
root -7.80607 17.2869 2.63887 -3.20315 55.0561 -18.383
lowerback 5.16799 -10.7476 -12.942
upperback 0.018202 -14.9888 -0.712773
thorax 0.225023 -7.44733 6.52748
lowerneck -5.98213 20.5954 1.34826
upperneck 16.2685 30.6414 -12.1633
head 8.21089 13.7318 -0.97295
rclavicle 8.66701e-014 1.90833e-014
rhumerus 24.0438 -16.8423 -65.1458
rradius 110.941
rwrist -2.70185
rhand -59.9757 38.2449
rfingers 7.12502
rthumb -32.1287 11.0649
lclavicle 8.66701e-014 1.90833e-014
lhumerus 104.6 -44.1899 45.4063
lradius 39.0996
lwrist -0.772545
lhand -24.5931 -2.38806
lfingers 7.12502
lthumb -178.095 -152.417
rfemur -37.3619 12.7919 27.5955
rtibia 42.8705
rfoot -13.7755 14.7577
rtoes 16.1266
lfemur -2.60429 3.8367 5.78302
ltibia 18.4937
lfoot -18.4138 28.393
ltoes -5.02248
190
root -7.80545 17.2885 2.64451 -2.95692 54.827 -18.1586
lowerback 5.15142 -10.6824 -12.8181
upperback -0.100081 -14.9019 -0.924241
thorax 0.00257847 -7.38 6.27863
lowerneck -5.61013 20.4513 1.7875
upperneck 16.0319 30.3793 -12.3481
head 8.14408 13.6554 -1.14682
rclavicle 5.10877e-014 -6.99722e-014
rhumerus 24.3235 -17.8294 -64.2942
rradius 111.336
rwrist -1.82867
rhand -59.911 37.9528
rfingers 7.12502
rthumb -32.0671 10.7603
lclavicle 5.10877e-014 -6.99722e-014
lhumerus 105.68 -44.2519 45.0349
lradius 39.6786
lwrist -0.643748
lhand -24.7911 -2.80108
lfingers 7.12502
lthumb -178.287 -152.828
rfemur -37.4087 13.0113 27.4903
rtibia 42.8709
rfoot -13.7473 14.8258
rtoes 16.3292
lfemur -2.45796 3.76398 5.6389
ltibia 18.3767
lfoot -18.5854 28.5678
ltoes -4.35967
191
root -7.80529 17.2896 2.64587 -2.80074 54.5934 -18.0154
lowerback 5.26614 -10.7053 -12.7239
upperback -0.216966 -14.955 -0.986496
thorax -0.214815 -7.38675 6.21088
lowerneck -5.40231 20.4867 1.89532
upperneck 15.7541 30.397 -12.5417
head 8.06583 13.6855 -1.2411
rclavicle -1.95803e-014 2.22639e-014
rhumerus 24.8847 -18.4935 -63.5553
rradius 111.776
rwrist -1.15021
rhand -59.8211 37.4016
rfingers 7.12502
rthumb -31.9816 10.1919
lclavicle -1.95803e-014 2.22639e-014
lhumerus 106.593 -43.9085 44.7826
lradius 40.0774
lwrist -0.493296
lhand -24.84 -3.16701
lfingers 7.12502
lthumb -178.334 -153.194
rfemur -37.441 13.1468 27.4503
rtibia 42.8769
rfoot -13.7491 14.9594
rtoes 16.3964
lfemur -2.27464 3.54665 5.53413
ltibia 18.2277
lfoot -18.9204 28.8174
ltoes -3.69442
192
root -7.80501 17.2875 2.64489 -2.68797 54.3505 -17.9363
lowerback 5.36602 -10.7919 -12.7145
upperback -0.240252 -15.0873 -0.89966
thorax -0.247516 -7.45166 6.30925
lowerneck -5.63889 20.6406 1.59131
upperneck 15.5584 30.6177 -12.619
head 8.02582 13.768 -1.18883
rclavicle -5.82439e-014 9.54166e-015
rhumerus 25.6666 -18.9661 -62.8404
rradius 112.155
rwrist -0.496206
rhand -59.742 37.0126
rfingers 7.12502
rthumb -31.9062 9.78786
lclavicle -5.82439e-014 9.54166e-015
lhumerus 107.343 -43.205 44.7334
lradius 40.418
lwrist -0.441319
lhand -24.7603 -3.54949
lfingers 7.12502
lthumb -178.257 -153.577
rfemur -37.4881 13.17 27.4722
rtibia 42.8825
rfoot -13.7161 15.245
rtoes 16.6036
lfemur -2.09297 3.47274 5.46985
ltibia 18.058
lfoot -18.9835 29.0959
ltoes -3.81221
193
root -7.80492 17.2868 2.64731 -2.54906 54.104 -17.8503
lowerback 5.38375 -10.8897 -12.7905
upperback -0.21154 -15.2218 -0.78742
thorax -0.150394 -7.52814 6.44685
lowerneck -6.02919 20.761 1.16834
upperneck 15.3589 30.7918 -12.6366
head 7.97811 13.8205 -1.10118
rclavicle 7.21588e-014 -3.18055e-014
rhumerus 26.5319 -19.4304 -62.142
rradius 112.309
rwrist 0.420898
rhand -59.8547 36.6195
rfingers 7.12502
rthumb -32.0135 9.41631
lclavicle 7.21588e-014 -3.18055e-014
lhumerus 108.052 -42.4031 44.6381
lradius 40.8509
lwrist -0.423643
lhand -24.9008 -4.00559
lfingers 7.12502
lthumb -178.393 -154.032
rfemur -37.5489 13.3187 27.4504
rtibia 42.8818
rfoot -13.6185 15.4629
rtoes 17.4524
lfemur -1.92762 3.50774 5.41378
ltibia 17.8901
lfoot -19.1413 29.2162
ltoes -3.3193
194
root -7.80491 17.2916 2.64992 -2.32121 53.8402 -17.6796
lowerback 5.36689 -10.9505 -12.8682
upperback -0.256082 -15.3069 -0.827668
thorax -0.163526 -7.56584 6.44018
lowerneck -5.95233 20.8313 1.39728
upperneck 15.1686 30.8652 -12.821
head 7.97251 13.8675 -1.17441
rclavicle 3.77691e-015 6.04305e-014
rhumerus 27.068 -19.9632 -61.5207
rradius 112.435
rwrist 1.48801
rhand -60.1641 35.6076
rfingers 7.12502
rthumb -32.308 8.46394
lclavicle 3.77691e-015 6.04305e-014
lhumerus 108.823 -41.8032 44.1881
lradius 41.2807
lwrist -0.317193
lhand -25.3663 -4.38133
lfingers 7.12502
lthumb -178.842 -154.405
rfemur -37.6235 13.5886 27.341
rtibia 42.8661
rfoot -13.5068 15.5585
rtoes 18.2785
lfemur -1.78234 3.5444 5.30252
ltibia 17.7347
lfoot -19.3609 29.3173
ltoes -2.67091
195
root -7.80518 17.297 2.64592 -2.02332 53.6241 -17.4286
lowerback 5.39772 -10.9792 -12.8802
upperback -0.374339 -15.3595 -0.956991
thorax -0.329325 -7.57257 6.33863
lowerneck -5.57964 20.8615 2.01176
upperneck 15.0315 30.8942 -13.1731
head 8.01895 13.9094 -1.35793
rclavicle -1.06549e-013 1.90833e-014
rhumerus 27.3157 -20.5629 -60.8913
rradius 112.652
rwrist 2.52568
rhand -60.364 34.3091
rfingers 7.12502
rthumb -32.4983 7.20441
lclavicle -1.06549e-013 1.90833e-014
lhumerus 109.577 -41.4077 43.7083
lradius 41.6518
lwrist -0.183692
lhand -25.7933 -4.61039
lfingers 7.12502
lthumb -179.255 -154.632
rfemur -37.7173 13.7688 27.1632
rtibia 42.8325
rfoot -13.3932 15.6861
rtoes 18.5458
lfemur -1.68905 3.46362 5.11314
ltibia 17.5777
lfoot -19.4691 29.5604
ltoes -2.5827
196
root -7.80675 17.2993 2.63909 -1.85681 53.47 -17.2972
lowerback 5.48923 -10.9977 -12.7384
upperback -0.481676 -15.3999 -1.04152
thorax -0.545529 -7.57338 6.22288
lowerneck -5.49296 20.864 2.23496
upperneck 15.0483 30.9148 -13.3154
head 8.07012 13.919 -1.41793
rclavicle 1.68967e-013 5.08889e-014
rhumerus 27.5878 -21.1989 -60.232
rradius 112.906
rwrist 3.24605
rhand -60.3898 33.5854
rfingers 7.12502
rthumb -32.5229 6.48574
lclavicle 1.68967e-013 5.08889e-014
lhumerus 110.118 -41.1657 43.6207
lradius 42.0431
lwrist -0.195095
lhand -26.013 -4.90319
lfingers 7.12502
lthumb -179.467 -154.924
rfemur -37.7822 13.9457 27.0376
rtibia 42.7877
rfoot -13.3207 15.7642
rtoes 18.6858
lfemur -1.62111 3.30119 4.99335
ltibia 17.4497
lfoot -19.4373 29.8678
ltoes -2.89756
197
root -7.80837 17.3014 2.63521 -1.6807 53.3402 -17.1385
lowerback 5.52169 -10.9808 -12.6197
upperback -0.552754 -15.3824 -1.12646
thorax -0.695989 -7.55141 6.10271
lowerneck -5.5993 20.8328 2.11448
upperneck 15.1591 30.861 -13.1082
head 8.06619 13.8908 -1.34548
rclavicle 1.32589e-013 2.8625e-014
rhumerus 27.8126 -21.923 -59.5087
rradius 113.166
rwrist 3.7014
rhand -60.4764 33.4614
rfingers 7.12502
rthumb -32.6052 6.37875
lclavicle 1.32589e-013 2.8625e-014
lhumerus 110.633 -41.0626 43.6867
lradius 42.4589
lwrist -0.175879
lhand -26.1605 -5.14766
lfingers 7.12502
lthumb -179.609 -155.168
rfemur -37.8357 14.0956 26.9038
rtibia 42.7442
rfoot -13.2026 15.8562
rtoes 19.32
lfemur -1.57511 3.24293 4.86649
ltibia 17.3806
lfoot -19.3706 30.0185
ltoes -3.02356
198
root -7.80923 17.3018 2.63147 -1.45366 53.1823 -16.9265
lowerback 5.48847 -10.9459 -12.6001
upperback -0.594085 -15.3336 -1.21086
thorax -0.759385 -7.51977 6.01179
lowerneck -5.63638 20.8072 1.87813
upperneck 15.1288 30.7564 -12.7604
head 7.95711 13.863 -1.25059
rclavicle 2.70347e-014 -6.36111e-015
rhumerus 28.0092 -22.6017 -58.7655
rradius 113.389
rwrist 3.99134
rhand -60.4755 34.1032
rfingers 7.12502
rthumb -32.6044 7.02031
lclavicle 2.70347e-014 -6.36111e-015
lhumerus 111.263 -40.8989 43.6195
lradius 42.8206
lwrist 0.0503151
lhand -26.3452 -5.15812
lfingers 7.12502
lthumb -179.788 -155.178
rfemur -37.8845 14.1124 26.7765
rtibia 42.7023
rfoot -12.9973 16.1371
rtoes 20.3453
lfemur -1.5254 3.20777 4.70942
ltibia 17.3491
lfoot -19.6462 30.0268
ltoes -2.36145
